<svg width="97" height="84" viewBox="0 0 97 84" fill="none" xmlns="http://www.w3.org/2000/svg">
<g opacity="0.4">
<path d="M5.06744 8.81314C7.5247 8.81314 9.51672 6.84034 9.51672 4.40663C9.51672 1.97293 7.5247 0 5.06744 0C2.61018 0 0.618164 1.97293 0.618164 4.40663C0.618164 6.84034 2.61018 8.81314 5.06744 8.81314Z" fill="#D98585"/>
<path d="M34.0948 8.81314C36.552 8.81314 38.5441 6.84034 38.5441 4.40663C38.5441 1.97293 36.552 0 34.0948 0C31.6375 0 29.6455 1.97293 29.6455 4.40663C29.6455 6.84034 31.6375 8.81314 34.0948 8.81314Z" fill="#D98585"/>
<path d="M63.1231 8.81314C65.5804 8.81314 67.5724 6.84034 67.5724 4.40663C67.5724 1.97293 65.5804 0 63.1231 0C60.6658 0 58.6738 1.97293 58.6738 4.40663C58.6738 6.84034 60.6658 8.81314 63.1231 8.81314Z" fill="#D98585"/>
<path d="M92.1505 8.81314C94.6077 8.81314 96.5997 6.84034 96.5997 4.40663C96.5997 1.97293 94.6077 0 92.1505 0C89.6932 0 87.7012 1.97293 87.7012 4.40663C87.7012 6.84034 89.6932 8.81314 92.1505 8.81314Z" fill="#D98585"/>
<path d="M5.06744 33.7625C7.5247 33.7625 9.51672 31.7896 9.51672 29.3559C9.51672 26.9221 7.5247 24.9492 5.06744 24.9492C2.61018 24.9492 0.618164 26.9221 0.618164 29.3559C0.618164 31.7896 2.61018 33.7625 5.06744 33.7625Z" fill="#D98585"/>
<path d="M34.0948 33.7625C36.552 33.7625 38.5441 31.7896 38.5441 29.3559C38.5441 26.9221 36.552 24.9492 34.0948 24.9492C31.6375 24.9492 29.6455 26.9221 29.6455 29.3559C29.6455 31.7896 31.6375 33.7625 34.0948 33.7625Z" fill="#D98585"/>
<path d="M63.1231 33.7625C65.5804 33.7625 67.5724 31.7896 67.5724 29.3559C67.5724 26.9221 65.5804 24.9492 63.1231 24.9492C60.6658 24.9492 58.6738 26.9221 58.6738 29.3559C58.6738 31.7896 60.6658 33.7625 63.1231 33.7625Z" fill="#D98585"/>
<path d="M92.1505 33.7625C94.6077 33.7625 96.5997 31.7896 96.5997 29.3559C96.5997 26.9221 94.6077 24.9492 92.1505 24.9492C89.6932 24.9492 87.7012 26.9221 87.7012 29.3559C87.7012 31.7896 89.6932 33.7625 92.1505 33.7625Z" fill="#D98585"/>
<path d="M5.06744 58.7233C7.5247 58.7233 9.51672 56.7504 9.51672 54.3167C9.51672 51.883 7.5247 49.9102 5.06744 49.9102C2.61018 49.9102 0.618164 51.883 0.618164 54.3167C0.618164 56.7504 2.61018 58.7233 5.06744 58.7233Z" fill="#D98585"/>
<path d="M34.0948 58.7233C36.552 58.7233 38.5441 56.7504 38.5441 54.3167C38.5441 51.883 36.552 49.9102 34.0948 49.9102C31.6375 49.9102 29.6455 51.883 29.6455 54.3167C29.6455 56.7504 31.6375 58.7233 34.0948 58.7233Z" fill="#D98585"/>
<path d="M63.1231 58.7233C65.5804 58.7233 67.5724 56.7504 67.5724 54.3167C67.5724 51.883 65.5804 49.9102 63.1231 49.9102C60.6658 49.9102 58.6738 51.883 58.6738 54.3167C58.6738 56.7504 60.6658 58.7233 63.1231 58.7233Z" fill="#D98585"/>
<path d="M92.1505 58.7233C94.6077 58.7233 96.5997 56.7504 96.5997 54.3167C96.5997 51.883 94.6077 49.9102 92.1505 49.9102C89.6932 49.9102 87.7012 51.883 87.7012 54.3167C87.7012 56.7504 89.6932 58.7233 92.1505 58.7233Z" fill="#D98585"/>
<path d="M5.06744 83.6726C7.5247 83.6726 9.51672 81.6997 9.51672 79.266C9.51672 76.8323 7.5247 74.8594 5.06744 74.8594C2.61018 74.8594 0.618164 76.8323 0.618164 79.266C0.618164 81.6997 2.61018 83.6726 5.06744 83.6726Z" fill="#D98585"/>
<path d="M34.0948 83.6726C36.552 83.6726 38.5441 81.6997 38.5441 79.266C38.5441 76.8323 36.552 74.8594 34.0948 74.8594C31.6375 74.8594 29.6455 76.8323 29.6455 79.266C29.6455 81.6997 31.6375 83.6726 34.0948 83.6726Z" fill="#D98585"/>
<path d="M63.1231 83.6726C65.5804 83.6726 67.5724 81.6997 67.5724 79.266C67.5724 76.8323 65.5804 74.8594 63.1231 74.8594C60.6658 74.8594 58.6738 76.8323 58.6738 79.266C58.6738 81.6997 60.6658 83.6726 63.1231 83.6726Z" fill="#D98585"/>
<path d="M92.1505 83.6726C94.6077 83.6726 96.5997 81.6997 96.5997 79.266C96.5997 76.8323 94.6077 74.8594 92.1505 74.8594C89.6932 74.8594 87.7012 76.8323 87.7012 79.266C87.7012 81.6997 89.6932 83.6726 92.1505 83.6726Z" fill="#D98585"/>
</g>
</svg>
