<svg width="278" height="51" viewBox="0 0 278 51" fill="none" xmlns="http://www.w3.org/2000/svg">
<path d="M69.752 20.291V3.29902H73.808V14.483H73.904L80.432 3.29902H84.752V20.291H80.696V9.37102H80.624L74.144 20.291H69.752ZM92.1076 20.291V3.29902H103.532V6.77902H96.0676V9.97102H103.124V13.259H96.0676V16.787H103.964V20.291H92.1076ZM117.582 20.747V18.683C115.246 18.651 113.334 17.979 111.846 16.667C110.358 15.355 109.614 13.643 109.614 11.531C109.614 9.30702 110.318 7.57902 111.726 6.34701C113.134 5.11501 115.086 4.45901 117.582 4.37901V2.84301H121.686V4.37901C124.182 4.45901 126.134 5.11501 127.542 6.34701C128.966 7.57902 129.678 9.30702 129.678 11.531C129.678 13.627 128.934 15.339 127.446 16.667C125.958 17.979 124.038 18.651 121.686 18.683V20.747H117.582ZM117.582 15.203V7.85902C116.286 7.97101 115.334 8.35501 114.726 9.01101C114.118 9.65102 113.814 10.499 113.814 11.555C113.814 13.715 115.07 14.931 117.582 15.203ZM121.686 15.203C124.198 14.931 125.454 13.715 125.454 11.555C125.454 10.499 125.15 9.65102 124.542 9.01101C123.934 8.35501 122.982 7.97101 121.686 7.85902V15.203ZM136.116 20.291V3.29902H140.148V10.211H140.22L146.292 3.29902H151.428L144.108 11.123L151.86 20.291H146.508L140.196 12.467H140.148V20.291H136.116Z" fill="#1B517A"/>
<path d="M68.94 33.1494V26.0694H69.66V32.0294H69.68L73.58 26.0694H74.39V33.1494H73.67V27.1294H73.65L69.75 33.1494H68.94ZM77.874 33.1494V26.0694H78.974L81.374 31.9294H81.384L83.754 26.0694H84.854V33.1494H84.134V26.9994H84.114L81.554 33.1494H81.174L78.614 26.9994H78.594V33.1494H77.874ZM88.3314 33.1494V26.0694H93.6314V33.1494H92.9114V26.7094H89.0514V33.1494H88.3314ZM103.059 32.2794C102.359 32.9794 101.479 33.3294 100.419 33.3294C99.3591 33.3294 98.4791 32.9794 97.7791 32.2794C97.0791 31.5727 96.7291 30.6827 96.7291 29.6094C96.7291 28.536 97.0791 27.6494 97.7791 26.9494C98.4791 26.2427 99.3591 25.8894 100.419 25.8894C101.479 25.8894 102.359 26.2427 103.059 26.9494C103.759 27.6494 104.109 28.536 104.109 29.6094C104.109 30.6827 103.759 31.5727 103.059 32.2794ZM98.2891 31.7994C98.8291 32.3927 99.5391 32.6894 100.419 32.6894C101.299 32.6894 102.006 32.3927 102.539 31.7994C103.079 31.1994 103.349 30.4694 103.349 29.6094C103.349 28.7494 103.079 28.0194 102.539 27.4194C102.006 26.8194 101.299 26.5194 100.419 26.5194C99.5391 26.5194 98.8291 26.8194 98.2891 27.4194C97.7558 28.0194 97.4891 28.7494 97.4891 29.6094C97.4891 30.4694 97.7558 31.1994 98.2891 31.7994ZM107.205 33.1494V26.0694H109.205C109.945 26.0694 110.529 26.2294 110.955 26.5494C111.382 26.8694 111.595 27.3394 111.595 27.9594C111.595 28.5794 111.379 29.0527 110.945 29.3794C110.512 29.6994 109.925 29.8594 109.185 29.8594H107.925V33.1494H107.205ZM107.925 29.2494H109.145C109.705 29.2494 110.132 29.1394 110.425 28.9194C110.725 28.6994 110.875 28.3794 110.875 27.9594C110.875 27.1127 110.299 26.6894 109.145 26.6894H107.925V29.2494ZM116.156 33.1494V26.7094H113.786V26.0694H119.246V26.7094H116.876V33.1494H116.156ZM126.009 33.1494V26.0694H130.399V26.7094H126.729V29.1494H130.159V29.7794H126.729V32.5094H130.519V33.1494H126.009ZM133.527 33.1494V26.0694H135.637C135.93 26.0694 136.204 26.0994 136.457 26.1594C136.71 26.2127 136.95 26.306 137.177 26.4394C137.404 26.566 137.584 26.7527 137.717 26.9994C137.85 27.246 137.917 27.5394 137.917 27.8794C137.917 28.2527 137.8 28.5794 137.567 28.8594C137.34 29.1327 137.04 29.3127 136.667 29.3994V29.4194C137.14 29.4727 137.524 29.656 137.817 29.9694C138.117 30.2827 138.267 30.6894 138.267 31.1894C138.267 31.7827 138.03 32.2594 137.557 32.6194C137.084 32.9727 136.44 33.1494 135.627 33.1494H133.527ZM134.247 32.5294H135.587C136.154 32.5294 136.62 32.416 136.987 32.1894C137.354 31.9627 137.537 31.616 137.537 31.1494C137.537 30.6894 137.38 30.3427 137.067 30.1094C136.754 29.876 136.304 29.7594 135.717 29.7594H134.247V32.5294ZM134.247 29.1694H135.697C136.104 29.1694 136.454 29.0694 136.747 28.8694C137.047 28.6694 137.197 28.356 137.197 27.9294C137.197 27.5027 137.04 27.1894 136.727 26.9894C136.414 26.7894 136.004 26.6894 135.497 26.6894H134.247V29.1694ZM141.485 33.1494V26.0694H143.485C144.225 26.0694 144.808 26.2294 145.235 26.5494C145.661 26.8694 145.875 27.3394 145.875 27.9594C145.875 28.5794 145.658 29.0527 145.225 29.3794C144.791 29.6994 144.205 29.8594 143.465 29.8594H142.205V33.1494H141.485ZM142.205 29.2494H143.425C143.985 29.2494 144.411 29.1394 144.705 28.9194C145.005 28.6994 145.155 28.3794 145.155 27.9594C145.155 27.1127 144.578 26.6894 143.425 26.6894H142.205V29.2494ZM154.835 32.2794C154.135 32.9794 153.255 33.3294 152.195 33.3294C151.135 33.3294 150.255 32.9794 149.555 32.2794C148.855 31.5727 148.505 30.6827 148.505 29.6094C148.505 28.536 148.855 27.6494 149.555 26.9494C150.255 26.2427 151.135 25.8894 152.195 25.8894C153.255 25.8894 154.135 26.2427 154.835 26.9494C155.535 27.6494 155.885 28.536 155.885 29.6094C155.885 30.6827 155.535 31.5727 154.835 32.2794ZM150.065 31.7994C150.605 32.3927 151.315 32.6894 152.195 32.6894C153.075 32.6894 153.782 32.3927 154.315 31.7994C154.855 31.1994 155.125 30.4694 155.125 29.6094C155.125 28.7494 154.855 28.0194 154.315 27.4194C153.782 26.8194 153.075 26.5194 152.195 26.5194C151.315 26.5194 150.605 26.8194 150.065 27.4194C149.532 28.0194 149.265 28.7494 149.265 29.6094C149.265 30.4694 149.532 31.1994 150.065 31.7994ZM158.981 33.1494V26.0694H164.281V33.1494H163.561V26.7094H159.701V33.1494H158.981ZM167.759 33.1494V26.0694H172.149V26.7094H168.479V29.1494H171.909V29.7794H168.479V32.5094H172.269V33.1494H167.759ZM175.277 33.1494V26.0694H175.997V32.0294H176.017L179.917 26.0694H180.727V33.1494H180.007V27.1294H179.987L176.087 33.1494H175.277ZM178.997 25.0494C178.737 25.276 178.404 25.3894 177.997 25.3894C177.59 25.3894 177.254 25.276 176.987 25.0494C176.727 24.816 176.577 24.5027 176.537 24.1094L176.997 24.0194C177.044 24.2727 177.157 24.476 177.337 24.6294C177.524 24.776 177.744 24.8494 177.997 24.8494C178.25 24.8494 178.467 24.776 178.647 24.6294C178.834 24.476 178.95 24.2727 178.997 24.0194L179.457 24.1094C179.417 24.5027 179.264 24.816 178.997 25.0494ZM187.521 33.3294C186.454 33.3294 185.571 32.9794 184.871 32.2794C184.178 31.5727 183.831 30.6827 183.831 29.6094C183.831 28.536 184.181 27.6494 184.881 26.9494C185.581 26.2427 186.461 25.8894 187.521 25.8894C188.041 25.8894 188.528 25.9927 188.981 26.1994C189.441 26.3994 189.794 26.6694 190.041 27.0094L189.441 27.4494C189.274 27.196 189.018 26.9794 188.671 26.7994C188.331 26.6127 187.951 26.5194 187.531 26.5194C186.644 26.5194 185.931 26.8194 185.391 27.4194C184.858 28.0194 184.591 28.7494 184.591 29.6094C184.591 30.4694 184.861 31.1994 185.401 31.7994C185.941 32.3994 186.651 32.6994 187.531 32.6994C188.451 32.6994 189.144 32.3494 189.611 31.6494L190.171 32.0094C189.918 32.396 189.561 32.7127 189.101 32.9594C188.648 33.206 188.121 33.3294 187.521 33.3294ZM193.008 33.1494V26.0694H193.728V29.2494H193.738L197.108 26.0694H198.138L194.568 29.2794L198.338 33.1494H197.278L193.738 29.3794H193.728V33.1494H193.008ZM200.888 33.1494V26.0694H201.608V32.0294H201.628L205.528 26.0694H206.338V33.1494H205.618V27.1294H205.598L201.698 33.1494H200.888ZM209.072 33.1494L211.672 29.4294L209.302 26.0694H210.202L212.142 28.9294L214.072 26.0694H214.932L212.582 29.4394L215.182 33.1494H214.282L212.122 29.9594L209.972 33.1494H209.072ZM71.84 45.3394V44.4894C70.8267 44.476 70.0167 44.1927 69.41 43.6394C68.8033 43.086 68.5 42.3727 68.5 41.4994C68.5 40.606 68.8067 39.8927 69.42 39.3594C70.04 38.826 70.8467 38.546 71.84 38.5194V37.8894H72.56V38.5194C73.5533 38.546 74.3567 38.826 74.97 39.3594C75.59 39.8927 75.9 40.606 75.9 41.4994C75.9 42.3727 75.5967 43.086 74.99 43.6394C74.3833 44.1927 73.5733 44.476 72.56 44.4894V45.3394H71.84ZM71.84 43.8594V39.1494C71.0267 39.176 70.3933 39.4094 69.94 39.8494C69.4867 40.2827 69.26 40.836 69.26 41.5094C69.26 42.2027 69.48 42.756 69.92 43.1694C70.3667 43.5827 71.0067 43.8127 71.84 43.8594ZM72.56 43.8594C73.3933 43.8127 74.03 43.5827 74.47 43.1694C74.9167 42.756 75.14 42.2027 75.14 41.5094C75.14 40.836 74.9133 40.2827 74.46 39.8494C74.0067 39.4094 73.3733 39.176 72.56 39.1494V43.8594ZM77.8543 45.1494L80.9143 38.0694H81.6143L84.6543 45.1494H83.8543L83.0743 43.2894H79.4143L78.6443 45.1494H77.8543ZM79.6843 42.6294H82.8043L81.2443 38.8694L79.6843 42.6294ZM87.2963 45.1494V38.0694H89.2963C90.0363 38.0694 90.6196 38.2294 91.0463 38.5494C91.4729 38.8694 91.6863 39.3394 91.6863 39.9594C91.6863 40.5794 91.4696 41.0527 91.0363 41.3794C90.6029 41.6994 90.0163 41.8594 89.2763 41.8594H88.0163V45.1494H87.2963ZM88.0163 41.2494H89.2363C89.7963 41.2494 90.2229 41.1394 90.5163 40.9194C90.8163 40.6994 90.9663 40.3794 90.9663 39.9594C90.9663 39.1127 90.3896 38.6894 89.2363 38.6894H88.0163V41.2494ZM94.697 45.1494V38.0694H95.797L98.197 43.9294H98.207L100.577 38.0694H101.677V45.1494H100.957V38.9994H100.937L98.377 45.1494H97.997L95.437 38.9994H95.417V45.1494H94.697ZM104.314 45.1494L107.374 38.0694H108.074L111.114 45.1494H110.314L109.534 43.2894H105.874L105.104 45.1494H104.314ZM106.144 42.6294H109.264L107.704 38.8694L106.144 42.6294ZM119.176 46.8894V45.1494H113.756V38.0694H114.476V44.5094H118.336V38.0694H119.056V44.5094H119.856V46.8894H119.176ZM122.778 45.1494V38.0694H127.168V38.7094H123.498V41.1494H126.928V41.7794H123.498V44.5094H127.288V45.1494H122.778ZM130.296 45.1494V38.0694H132.406C132.7 38.0694 132.973 38.0994 133.226 38.1594C133.48 38.2127 133.72 38.306 133.946 38.4394C134.173 38.566 134.353 38.7527 134.486 38.9994C134.62 39.246 134.686 39.5394 134.686 39.8794C134.686 40.2527 134.57 40.5794 134.336 40.8594C134.11 41.1327 133.81 41.3127 133.436 41.3994V41.4194C133.91 41.4727 134.293 41.656 134.586 41.9694C134.886 42.2827 135.036 42.6894 135.036 43.1894C135.036 43.7827 134.8 44.2594 134.326 44.6194C133.853 44.9727 133.21 45.1494 132.396 45.1494H130.296ZM131.016 44.5294H132.356C132.923 44.5294 133.39 44.416 133.756 44.1894C134.123 43.9627 134.306 43.616 134.306 43.1494C134.306 42.6894 134.15 42.3427 133.836 42.1094C133.523 41.876 133.073 41.7594 132.486 41.7594H131.016V44.5294ZM131.016 41.1694H132.466C132.873 41.1694 133.223 41.0694 133.516 40.8694C133.816 40.6694 133.966 40.356 133.966 39.9294C133.966 39.5027 133.81 39.1894 133.496 38.9894C133.183 38.7894 132.773 38.6894 132.266 38.6894H131.016V41.1694ZM139.804 45.1494V38.7094H137.434V38.0694H142.894V38.7094H140.524V45.1494H139.804ZM145.557 45.1494V38.0694H146.277V44.0294H146.297L150.197 38.0694H151.007V45.1494H150.287V39.1294H150.267L146.367 45.1494H145.557ZM158.291 45.1494V42.1994C157.777 42.346 157.231 42.4194 156.651 42.4194C155.871 42.4194 155.294 42.2627 154.921 41.9494C154.547 41.636 154.361 41.156 154.361 40.5094V38.0694H155.081V40.4394C155.081 41.3327 155.594 41.7794 156.621 41.7794C157.374 41.7794 157.931 41.706 158.291 41.5594V38.0694H159.011V45.1494H158.291ZM162.487 45.1494V38.0694H166.877V38.7094H163.207V41.1494H166.637V41.7794H163.207V44.5094H166.997V45.1494H162.487ZM173.315 45.3294C172.249 45.3294 171.365 44.9794 170.665 44.2794C169.972 43.5727 169.625 42.6827 169.625 41.6094C169.625 40.536 169.975 39.6494 170.675 38.9494C171.375 38.2427 172.255 37.8894 173.315 37.8894C173.835 37.8894 174.322 37.9927 174.775 38.1994C175.235 38.3994 175.589 38.6694 175.835 39.0094L175.235 39.4494C175.069 39.196 174.812 38.9794 174.465 38.7994C174.125 38.6127 173.745 38.5194 173.325 38.5194C172.439 38.5194 171.725 38.8194 171.185 39.4194C170.652 40.0194 170.385 40.7494 170.385 41.6094C170.385 42.4694 170.655 43.1994 171.195 43.7994C171.735 44.3994 172.445 44.6994 173.325 44.6994C174.245 44.6994 174.939 44.3494 175.405 43.6494L175.965 44.0094C175.712 44.396 175.355 44.7127 174.895 44.9594C174.442 45.206 173.915 45.3294 173.315 45.3294ZM178.803 45.1494V38.0694H179.523V41.2494H179.533L182.903 38.0694H183.933L180.363 41.2794L184.133 45.1494H183.073L179.533 41.3794H179.523V45.1494H178.803ZM186.682 45.1494V38.0694H187.402V44.0294H187.422L191.322 38.0694H192.132V45.1494H191.412V39.1294H191.392L187.492 45.1494H186.682ZM194.866 45.1494L197.466 41.4294L195.096 38.0694H195.996L197.936 40.9294L199.866 38.0694H200.726L198.376 41.4394L200.976 45.1494H200.076L197.916 41.9594L195.766 45.1494H194.866ZM207.81 45.1494V38.0694H208.53V41.2494H208.54L211.91 38.0694H212.94L209.37 41.2794L213.14 45.1494H212.08L208.54 41.3794H208.53V45.1494H207.81ZM221.395 44.2794C220.695 44.9794 219.815 45.3294 218.755 45.3294C217.695 45.3294 216.815 44.9794 216.115 44.2794C215.415 43.5727 215.065 42.6827 215.065 41.6094C215.065 40.536 215.415 39.6494 216.115 38.9494C216.815 38.2427 217.695 37.8894 218.755 37.8894C219.815 37.8894 220.695 38.2427 221.395 38.9494C222.095 39.6494 222.445 40.536 222.445 41.6094C222.445 42.6827 222.095 43.5727 221.395 44.2794ZM216.625 43.7994C217.165 44.3927 217.875 44.6894 218.755 44.6894C219.635 44.6894 220.342 44.3927 220.875 43.7994C221.415 43.1994 221.685 42.4694 221.685 41.6094C221.685 40.7494 221.415 40.0194 220.875 39.4194C220.342 38.8194 219.635 38.5194 218.755 38.5194C217.875 38.5194 217.165 38.8194 216.625 39.4194C216.092 40.0194 215.825 40.7494 215.825 41.6094C215.825 42.4694 216.092 43.1994 216.625 43.7994ZM225.541 45.1494V38.0694H226.641L229.041 43.9294H229.051L231.421 38.0694H232.521V45.1494H231.801V38.9994H231.781L229.221 45.1494H228.841L226.281 38.9994H226.261V45.1494H225.541ZM235.999 45.1494V38.0694H241.299V45.1494H240.579V38.7094H236.719V45.1494H235.999ZM243.936 45.1494L246.996 38.0694H247.696L250.736 45.1494H249.936L249.156 43.2894H245.496L244.726 45.1494H243.936ZM245.766 42.6294H248.886L247.326 38.8694L245.766 42.6294ZM253.378 45.1494V38.0694H254.098V41.1394H257.958V38.0694H258.678V45.1494H257.958V41.7994H254.098V45.1494H253.378ZM262.156 45.1494V38.0694H262.876V44.0294H262.896L266.796 38.0694H267.606V45.1494H266.886V39.1294H266.866L262.966 45.1494H262.156ZM271.09 45.1494V38.0694H271.81V44.0294H271.83L275.73 38.0694H276.54V45.1494H275.82V39.1294H275.8L271.9 45.1494H271.09ZM274.81 37.0494C274.55 37.276 274.217 37.3894 273.81 37.3894C273.403 37.3894 273.067 37.276 272.8 37.0494C272.54 36.816 272.39 36.5027 272.35 36.1094L272.81 36.0194C272.857 36.2727 272.97 36.476 273.15 36.6294C273.337 36.776 273.557 36.8494 273.81 36.8494C274.063 36.8494 274.28 36.776 274.46 36.6294C274.647 36.476 274.763 36.2727 274.81 36.0194L275.27 36.1094C275.23 36.5027 275.077 36.816 274.81 37.0494Z" fill="black"/>
<path d="M29.5943 17.747C29.5945 17.7695 29.5947 17.792 29.5848 17.851C29.5613 17.9359 29.5364 17.9843 29.5362 18.0328C29.5336 18.8782 29.5328 19.7236 29.5365 20.569C29.5367 20.623 29.5763 20.6769 29.5975 20.7308C29.5913 20.7709 29.585 20.811 29.5715 20.8773C29.5544 20.9357 29.5363 20.9678 29.5362 21C29.5342 21.8636 29.533 22.7273 29.5364 23.5909C29.5366 23.645 29.5756 23.699 29.5966 23.753C29.5958 23.7753 29.5951 23.7975 29.5792 23.8511C29.5345 23.9662 29.4798 24.0498 29.4791 24.1337C29.4725 24.9265 29.4714 25.7194 29.4777 26.5122C29.4792 26.7 29.6105 26.8874 29.4762 27.0977C29.5133 27.2525 29.3572 27.4547 29.6673 27.5078C29.5976 27.6377 29.51 27.7444 29.4624 27.8623C29.352 28.1362 29.1388 28.2008 28.7979 28.2001C23.7159 28.1901 18.634 28.1934 13.552 28.1935C12.8621 28.1935 12.8619 28.1934 12.9158 28.7638C12.9172 28.7786 12.9337 28.7924 12.9675 28.8432C18.2273 28.8432 23.5108 28.8432 28.8477 28.8432C28.5575 29.3149 28.2823 29.734 28.0411 30.1662C27.9212 30.381 27.761 30.4447 27.4823 30.4443C22.7547 30.4375 18.0271 30.4396 13.2994 30.4397C13.181 30.4397 13.0625 30.4397 12.9376 30.4397C12.9234 30.5078 12.9101 30.5478 12.9073 30.5883C12.8737 31.0706 12.8741 31.0713 13.4438 31.0713C17.9791 31.0717 22.5143 31.0718 27.0496 31.072C27.1667 31.072 27.2838 31.072 27.4691 31.072C27.1782 31.546 26.9046 31.9631 26.6655 32.3934C26.5472 32.6064 26.3972 32.6772 26.1125 32.6767C21.8607 32.6683 17.6089 32.6708 13.3571 32.6707C13.266 32.6707 13.174 32.6652 13.0841 32.6741C13.029 32.6795 12.9326 32.705 12.931 32.7258C12.9168 32.9004 12.8989 33.0792 12.935 33.249C12.943 33.2868 13.1594 33.3127 13.28 33.3128C17.3698 33.3161 21.4597 33.3156 25.5495 33.3157C25.7059 33.3157 25.8623 33.3157 26.0655 33.3157C25.9054 33.6032 25.7713 33.8441 25.6212 34.0952C25.5203 34.2378 25.4425 34.3738 25.3483 34.5015C25.2475 34.6384 25.1312 34.7674 24.9957 34.9024C24.6258 34.9075 24.282 34.9123 23.9381 34.9123C20.3477 34.9118 16.7572 34.9104 13.1667 34.9111C13.0899 34.9111 12.9492 34.9265 12.9465 34.9453C12.9221 35.1172 12.9026 35.2934 12.9289 35.4634C12.9348 35.5017 13.1248 35.5446 13.2302 35.5447C16.8206 35.5489 20.4112 35.5481 24.0017 35.5487C24.2037 35.5487 24.4058 35.5543 24.6084 35.5762C24.6009 35.6442 24.6081 35.6996 24.5825 35.7411C24.2911 36.2156 23.9947 36.6879 23.6718 37.1569C22.035 37.1504 20.4262 37.1466 18.8174 37.1456C16.9554 37.1444 15.0934 37.145 13.2314 37.1473C13.1346 37.1474 12.9591 37.1597 12.9538 37.1853C12.9188 37.3556 12.9011 37.5329 12.9244 37.7036C12.9296 37.7413 13.1216 37.7856 13.2277 37.7859C15.0796 37.7912 16.9315 37.789 18.7833 37.7907C20.2808 37.792 21.7783 37.7963 23.2743 37.8181C22.8186 38.5824 22.3683 39.3294 21.9083 40.0723C21.7251 40.368 21.5204 40.6545 21.2982 40.9439C21.0084 40.9576 20.7458 40.9725 20.4548 40.9875C16.7166 40.9877 13.0068 40.9876 9.29705 40.9882C9.09531 40.9882 8.89358 40.9946 8.67089 40.9939C8.60751 40.984 8.56507 40.9782 8.51565 40.9569C8.36777 40.9174 8.22687 40.8934 8.06116 40.8663C7.97235 40.8474 7.90834 40.8315 7.83953 40.8003C7.59612 40.6607 7.34661 40.5487 7.12209 40.4089C6.90846 40.276 6.68078 40.1375 6.53073 39.9599C6.25943 39.6387 5.95956 39.3077 5.82247 38.9419C5.66356 38.5179 5.61004 38.052 5.60896 37.6041C5.59554 32.0112 5.60489 26.4183 5.59376 20.8254C5.59231 20.0976 5.83071 19.4213 6.33051 18.8645C6.95874 18.1645 7.84422 17.7025 8.94384 17.701C15.7852 17.692 22.6265 17.698 29.486 17.7008C29.5341 17.7173 29.5642 17.7322 29.5943 17.747ZM8.9228 21.8082C8.9228 22.848 8.9228 23.8878 8.9228 24.9355C9.26379 24.9355 9.56911 24.9355 9.90355 24.9355C9.90355 24.8229 9.90354 24.7321 9.90355 24.6412C9.90362 24.0028 9.90382 23.3644 9.90371 22.726C9.90365 22.3337 9.99154 22.2633 10.4495 22.3774C10.6147 22.4185 10.7826 22.5411 10.8802 22.6643C11.2411 23.1199 11.5675 23.5943 11.9196 24.0549C12.0166 24.1817 12.007 24.2772 11.9145 24.3977C11.6263 24.7728 11.3478 25.153 11.0679 25.5325C10.8917 25.7714 10.7198 26.0126 10.5115 26.3002C10.8303 26.3002 11.0809 26.2882 11.3289 26.3037C11.5591 26.3181 11.6986 26.2567 11.8153 26.0842C12.0556 25.729 12.3274 25.3885 12.6128 25.0065C12.9087 25.4035 13.1724 25.76 13.4404 26.1143C13.4874 26.1764 13.5492 26.2759 13.6096 26.2787C13.953 26.2946 14.298 26.2864 14.6898 26.2864C14.6073 26.1625 14.5623 26.0887 14.5105 26.0183C14.1203 25.488 13.7328 24.9562 13.3352 24.4298C13.2272 24.2869 13.2072 24.1761 13.3278 24.021C13.7336 23.4991 14.1164 22.9648 14.5068 22.4347C14.5669 22.3531 14.621 22.2685 14.7025 22.1494C14.5205 22.1494 14.3976 22.164 14.2816 22.1469C13.7675 22.071 13.4278 22.2204 13.2092 22.6261C13.061 22.901 12.8309 23.1454 12.6216 23.4248C12.5465 23.3406 12.5007 23.2963 12.4643 23.2472C12.2364 22.9397 12.0017 22.6352 11.7933 22.3188C11.76 22.2682 11.8184 22.1353 11.8841 22.0872C12.386 21.7205 12.5705 21.2209 12.3665 20.7258C12.1595 20.2234 11.6266 19.9036 10.9531 19.8941C10.3662 19.8858 9.77876 19.8981 9.19187 19.8879C8.97754 19.8842 8.91275 19.944 8.91675 20.1199C8.92914 20.6657 8.92225 21.2118 8.9228 21.8082Z" fill="#D3F5F8"/>
<path d="M8.52272 40.9724C8.56516 40.9782 8.60759 40.984 8.68072 41.0117C8.82697 41.0504 8.94252 41.082 9.05811 41.0821C12.7697 41.085 16.4814 41.0853 20.193 41.0836C20.2899 41.0836 20.3868 41.0575 20.5114 41.0435C20.7409 41.0438 20.9427 41.0442 21.1474 41.0644C21.1342 41.1573 21.128 41.2332 21.1002 41.3032C20.9614 41.6527 20.7464 41.9931 20.69 42.351C20.5921 42.9718 20.5897 43.603 20.5531 44.2301C20.5506 44.2729 20.5974 44.3176 20.6239 44.377C20.6266 44.4137 20.6267 44.4347 20.6183 44.4783C20.6699 44.8643 20.6803 45.2399 20.8026 45.5885C20.9589 46.0341 21.1795 46.4683 21.4213 46.8879C21.6143 47.2229 21.8375 47.559 22.1243 47.8406C22.5824 48.2904 23.1044 48.6955 23.6149 49.1328C23.4369 49.3094 23.5412 49.4924 23.6949 49.6588C23.8435 49.8196 24.0554 49.8355 24.2727 49.7719C24.8592 49.6003 25.2578 49.9728 25.7497 50.1091C25.661 50.1701 25.5742 50.2092 25.4826 50.2197C25.0036 50.2745 24.5235 50.365 24.0436 50.3656C17.7613 50.3737 11.4791 50.3728 5.19683 50.3612C4.50866 50.3599 3.84178 50.2149 3.22077 49.9476C3.04709 49.8729 2.85276 49.8312 2.656 49.7679C2.62846 49.7526 2.61453 49.7421 2.60147 49.7118C2.37889 49.5733 2.15716 49.4529 1.93141 49.3308C1.92739 49.3292 1.92262 49.3229 1.9293 49.3053C1.68049 49.0747 1.42499 48.8617 1.16211 48.6411C1.15473 48.6335 1.14381 48.6162 1.14862 48.5988C1.08141 48.5184 1.0094 48.4555 0.930919 48.3834C0.924456 48.3742 0.913246 48.3551 0.913647 48.3363C0.710618 47.904 0.50213 47.4923 0.306114 47.0765C0.22157 46.8972 0.162828 46.7095 0.0886096 46.51C0.0836437 46.4733 0.0824322 46.4522 0.0964448 46.4155C0.0904296 46.2424 0.0691904 46.0848 0.0473996 45.9037C0.035678 45.5788 0.0245078 45.2774 0.0133375 44.976C0.0194774 44.9507 0.0256163 44.9254 0.0344437 44.8604C0.0408357 43.8855 0.0445392 42.9503 0.0572448 41.9917C0.0596191 41.9204 0.0529912 41.8724 0.0469037 41.8021C0.047725 40.8501 0.0480063 39.9203 0.0572949 38.9676C0.0607439 38.897 0.0551848 38.8496 0.049284 38.7797C0.0487117 37.8269 0.0484818 36.8966 0.057337 35.9432C0.0606039 35.8727 0.0547867 35.8252 0.0482663 35.7553C0.0476059 34.8028 0.0476481 33.8726 0.055321 32.9195C0.0581017 32.8652 0.0532517 32.8339 0.048105 32.7803C0.047186 31.8117 0.046564 30.8654 0.0555583 29.8959C0.0598397 29.8249 0.0545039 29.7771 0.0483627 29.7068C0.047744 28.865 0.0493906 28.0457 0.0464523 27.2264C0.0460385 27.1111 0.0232003 26.9959 0.0107422 26.8806C0.0178219 26.8552 0.0249022 26.8299 0.0345503 26.7647C0.0407839 26.1751 0.0490917 25.6253 0.0465422 25.0755C0.0447306 24.685 0.0282737 24.2946 0.018354 23.9041C0.0259296 23.8645 0.0335053 23.8249 0.0428365 23.7442C0.0473185 22.7656 0.0500451 21.8282 0.0603388 20.868C0.0615402 20.7988 0.0551736 20.7524 0.0484934 20.6836C0.0479187 19.731 0.0476569 18.8008 0.0532012 17.8512C0.0563638 17.8186 0.0537202 17.8054 0.0510767 17.7923C0.0477745 17.77 0.0444725 17.7476 0.0402077 17.6887C0.0419253 16.717 0.0446059 15.7819 0.0549762 14.8233C0.0567623 14.7681 0.0508584 14.7364 0.0459365 14.6825C0.0492452 14.0609 0.0515717 13.4614 0.0725615 12.8494C0.211916 12.4965 0.317538 12.1518 0.458968 11.8175C0.543282 11.6182 0.683817 11.4352 0.806741 11.2407C0.814404 11.2365 0.83172 11.2313 0.853269 11.2306C0.993111 11.1029 1.1114 10.9759 1.23848 10.8429C1.24727 10.8368 1.26741 10.8276 1.28938 10.8308C1.48504 10.7197 1.65872 10.6053 1.84874 10.4815C1.9256 10.4505 1.98613 10.4289 2.06904 10.415C2.22973 10.3637 2.36804 10.3047 2.52415 10.2388C2.5923 10.2208 2.64265 10.2098 2.7137 10.2068C3.03555 10.1746 3.33672 10.1342 3.6675 10.0927C11.1155 10.0909 18.5339 10.0902 25.966 10.104C26.1321 10.123 26.2846 10.1276 26.459 10.1333C26.5242 10.1401 26.5675 10.1457 26.6192 10.1683C26.695 10.1917 26.7623 10.1982 26.8441 10.2064C26.8587 10.208 26.8861 10.2165 26.8861 10.2295C26.9178 10.2403 26.9496 10.2381 27.0012 10.2369C27.0467 10.2428 27.0725 10.2478 27.1045 10.2687C27.4556 10.4353 27.8003 10.5861 28.1493 10.7367C28.1534 10.7365 28.1613 10.7345 28.1634 10.7509C28.3617 10.9204 28.5579 11.0735 28.7682 11.2378C28.8019 11.2632 28.8214 11.2775 28.8351 11.3087C28.9212 11.4346 29.0132 11.5435 29.109 11.6638C29.113 11.6751 29.1281 11.6949 29.1249 11.7144C29.1957 11.916 29.3084 12.0941 29.3359 12.2809C29.4031 12.7363 29.4344 13.1955 29.4729 13.6537C29.4958 13.9268 29.5048 14.2007 29.5179 14.4942C29.5172 14.5676 29.5188 14.621 29.5066 14.6918C29.4786 15.4557 29.4455 16.2024 29.4557 16.9487C29.4641 17.5685 29.4866 17.5686 28.7475 17.5686C22.4833 17.5687 16.219 17.5677 9.95481 17.5702C9.33233 17.5704 8.70252 17.5148 8.10449 17.6746C8.12622 17.4458 8.15025 17.2335 8.15061 17.0212C8.15371 15.2069 8.15193 13.3925 8.15418 11.5781C8.15431 11.4785 8.16934 11.3777 8.19106 11.2795C8.25936 10.9709 8.19287 10.8968 7.81661 10.8963C6.41966 10.8948 5.02258 10.887 3.6258 10.9C3.05377 10.9053 2.48381 11.0245 2.04278 11.3214C1.36756 11.776 0.986716 12.391 0.986507 13.1293C0.983452 23.9316 0.983888 34.7338 0.987105 45.536C0.987194 45.8366 0.995961 46.1417 1.05725 46.4366C1.12348 46.7553 1.22314 47.0753 1.36682 47.3755C1.66837 48.0055 2.18984 48.505 2.84501 48.9013C3.56062 49.3343 4.35581 49.6045 5.2561 49.6068C6.82513 49.6109 8.39419 49.6082 9.96323 49.6073C10.0772 49.6072 10.1911 49.5977 10.3594 49.5902C10.2849 49.5161 10.2587 49.4821 10.2236 49.4565C9.66885 49.0511 9.19094 48.5923 8.83431 48.0532C8.35335 47.3263 8.16831 46.5331 8.15802 45.7162C8.1393 44.2296 8.15081 42.7427 8.15822 41.2559C8.15858 41.1823 8.2399 41.109 8.29905 41.0318C8.34114 41.0136 8.36771 40.9991 8.41614 40.9861C8.46624 40.9825 8.49448 40.9775 8.52272 40.9724ZM27.6082 12.5382C27.6431 12.778 27.7053 13.0175 27.7081 13.2575C27.7199 14.2645 27.7121 15.2717 27.7155 16.2788C27.7165 16.5892 27.8997 16.7448 28.2406 16.7405C28.5565 16.7365 28.6843 16.6129 28.6852 16.2836C28.6883 15.1338 28.719 13.9831 28.6744 12.8345C28.6428 12.0196 28.1158 11.4188 27.2444 11.0446C26.2197 10.6046 25.123 10.728 24.0397 10.8043C23.8076 10.8207 23.6302 10.95 23.6443 11.1808C23.6575 11.3968 23.8009 11.5354 24.0518 11.5475C24.6556 11.5767 25.2615 11.5748 25.8654 11.6036C26.1325 11.6163 26.4151 11.6354 26.658 11.7178C27.0907 11.8645 27.3977 12.1428 27.6082 12.5382Z" fill="#FEAC20"/>
<path d="M25.6368 34.0851C25.7709 33.8442 25.9051 33.6032 26.0652 33.3157C25.862 33.3157 25.7056 33.3157 25.5492 33.3157C21.4593 33.3157 17.3695 33.3161 13.2796 33.3128C13.1591 33.3127 12.9427 33.2868 12.9346 33.249C12.8986 33.0792 12.9165 32.9004 12.9306 32.7258C12.9323 32.705 13.0287 32.6795 13.0838 32.6741C13.1737 32.6652 13.2657 32.6708 13.3568 32.6708C17.6086 32.6708 21.8604 32.6684 26.1122 32.6767C26.3969 32.6773 26.5469 32.6064 26.6652 32.3934C26.9043 31.9631 27.1779 31.546 27.4687 31.072C27.2834 31.072 27.1664 31.072 27.0493 31.072C22.514 31.0718 17.9787 31.0717 13.4435 31.0713C12.8737 31.0713 12.8733 31.0706 12.907 30.5883C12.9098 30.5478 12.9231 30.5078 12.9373 30.4398C13.0622 30.4398 13.1806 30.4398 13.2991 30.4398C18.0267 30.4396 22.7544 30.4375 27.482 30.4443C27.7607 30.4447 27.9208 30.381 28.0407 30.1662C28.282 29.734 28.5572 29.3149 28.8474 28.8432C23.5105 28.8432 18.227 28.8432 12.9672 28.8432C12.9334 28.7924 12.9169 28.7786 12.9155 28.7638C12.8616 28.1934 12.8618 28.1936 13.5517 28.1935C18.6337 28.1934 23.7156 28.1901 28.7975 28.2001C29.1384 28.2008 29.3517 28.1362 29.4621 27.8624C29.5097 27.7445 29.5973 27.6377 29.6657 27.5076C29.6645 27.4892 29.6667 27.4889 29.6837 27.481C29.7118 27.4432 29.7229 27.4132 29.7491 27.3725C29.7937 27.3017 29.8234 27.2415 29.8686 27.172C29.9201 27.0958 29.9561 27.029 30.0081 26.953C30.0354 26.9038 30.0468 26.8637 30.0706 26.8167C30.083 26.8099 30.0887 26.7857 30.1071 26.7798C30.1394 26.7444 30.1533 26.7148 30.1635 26.6848C30.1599 26.6842 30.1622 26.69 30.1776 26.6836C30.198 26.6594 30.2029 26.6416 30.2221 26.6117C30.5948 26.1594 30.9533 25.7193 31.3117 25.2792C31.3632 25.25 31.4146 25.2207 31.4882 25.1682C32.1268 24.744 32.7434 24.3431 33.3599 23.9422C33.4679 23.8961 33.5759 23.8499 33.7168 23.7881C34.126 23.6449 34.5023 23.5172 34.8786 23.3896C34.9299 23.3817 34.9811 23.3737 35.065 23.3564C35.1319 23.3371 35.1662 23.3271 35.2123 23.3199C35.224 23.3226 35.2401 23.3073 35.2647 23.3076C35.416 23.2867 35.5427 23.2655 35.6951 23.2445C35.9452 23.2061 36.1696 23.1676 36.4141 23.1303C36.4604 23.1278 36.4867 23.1241 36.541 23.1265C37.4893 23.0791 38.4081 23.0996 39.2921 23.3275C39.9418 23.4949 40.5662 23.7296 41.2173 23.9473C41.5431 24.1196 41.8534 24.2789 42.1637 24.4381C42.1924 24.4632 42.2212 24.4883 42.276 24.5292C43.2141 25.1624 43.9223 25.9169 44.479 26.7733C44.4933 26.8059 44.5077 26.8386 44.5381 26.8965C44.9222 27.6169 45.1655 28.3402 45.2642 29.1132C45.2681 29.1674 45.2779 29.2035 45.284 29.2576C45.2919 29.3474 45.3034 29.4192 45.3064 29.5047C45.3051 29.5789 45.3123 29.6394 45.3124 29.7164C45.3108 29.7554 45.3162 29.7779 45.3216 29.8004C45.317 29.8214 45.3123 29.8424 45.3021 29.897C45.2524 30.2623 45.2602 30.6061 45.1533 30.9233C44.9375 31.5634 44.6593 32.1891 44.4069 32.8207C44.387 32.8428 44.367 32.8648 44.3302 32.9114C43.9575 33.5094 43.5984 34.0815 43.2471 34.6568C43.0061 35.0515 42.7759 35.4508 42.5409 35.848C42.5072 35.8819 42.4735 35.9158 42.4274 35.9754C42.4055 36.0247 42.396 36.0483 42.3718 36.0801C42.3521 36.1068 42.3472 36.1254 42.3337 36.1497C42.325 36.1556 42.3227 36.174 42.3095 36.1828C42.2935 36.2098 42.2908 36.2279 42.2743 36.256C42.2531 36.295 42.2456 36.3241 42.2186 36.3583C42.1634 36.4225 42.1277 36.4815 42.0775 36.5529C41.7162 37.1317 41.3694 37.6982 41.0013 38.2664C40.9097 38.307 40.8393 38.3459 40.7502 38.3862C40.6924 38.4128 40.6533 38.4379 40.5972 38.4597C40.5411 38.4756 40.502 38.495 40.4428 38.5158C40.3445 38.5623 40.2664 38.6074 40.1794 38.6528C40.1705 38.6531 40.1609 38.6655 40.1427 38.6665C40.0898 38.6935 40.0551 38.7196 40.0276 38.7556C40.0348 38.7655 40.0187 38.7466 39.9989 38.7477C39.9162 38.7868 39.8534 38.8249 39.7718 38.8661C39.6838 38.9145 39.6146 38.9597 39.5265 39.0083C39.4914 39.0277 39.4751 39.0436 39.4411 39.0641C39.3378 39.1258 39.2522 39.1828 39.145 39.2437C39.0278 39.264 38.9321 39.2803 38.833 39.2807C38.6656 39.1289 38.5102 38.9846 38.3359 38.8584C36.3668 37.4335 34.1875 36.2683 31.8339 35.339C30.9734 34.9992 30.0405 34.7857 29.141 34.4983C29.1692 34.4196 29.1914 34.355 29.2258 34.2951C30.1665 32.6585 31.1098 31.0229 32.0494 29.3859C32.5101 28.5832 32.894 27.7435 33.437 26.9816C34.3152 25.7494 35.5697 24.8819 37.3364 24.6375C37.5715 24.6049 37.8119 24.5985 38.1127 24.575C37.3392 24.3568 36.2362 24.4194 35.3451 24.7265C33.7526 25.2752 32.62 26.248 31.7873 27.4691C30.756 28.9812 29.7556 30.5081 28.7504 32.0324C28.2755 32.7527 27.8205 33.4819 27.3309 34.1982C26.7491 34.1545 26.1929 34.1198 25.6368 34.0851Z" fill="#1B517A"/>
<path d="M29.1412 34.5146C30.0411 34.7857 30.9739 34.9992 31.8344 35.339C34.1881 36.2683 36.3673 37.4335 38.3364 38.8584C38.5108 38.9846 38.6661 39.1289 38.8321 39.3026C38.8305 39.3839 38.8271 39.4272 38.8259 39.4726C38.828 39.4746 38.8227 39.4715 38.8012 39.4726C38.47 39.7414 38.1603 40.0091 37.8386 40.2798C37.8265 40.2828 37.8023 40.2885 37.7809 40.2888C37.7132 40.3186 37.6565 40.3414 37.6224 40.3786C37.11 40.937 36.6809 41.5292 36.4408 42.2126C36.2412 42.7806 36.2367 43.3516 36.3202 43.9266C36.3907 44.4121 36.4973 44.894 36.5788 45.3937C36.1752 46.0387 35.7808 46.6675 35.3863 47.2963C35.2625 47.4936 35.1384 47.6907 35.0145 47.888C34.9758 47.9162 34.9371 47.9444 34.8697 47.9881C34.8029 48.0293 34.7595 48.0512 34.7274 48.0814C33.8109 48.9463 32.7136 49.5976 31.4173 50.0145C31.3837 50.0258 31.35 50.0372 31.2835 50.0607C30.1159 50.3624 28.9609 50.5091 27.7715 50.4136C27.7394 50.4027 27.7073 50.3918 27.6322 50.3774C27.0856 50.2875 26.5819 50.201 26.0631 50.1025C25.7388 49.9746 25.4306 49.8573 25.1206 49.743C24.2435 49.4197 23.5038 48.9289 22.853 48.3618C21.8367 47.4761 21.1494 46.4287 20.8366 45.2235C20.77 44.967 20.697 44.7116 20.627 44.4558C20.6269 44.4347 20.6268 44.4137 20.6352 44.3595C20.6059 43.2602 20.7653 42.2225 21.2857 41.2357C21.3167 41.1769 21.3114 41.1049 21.3267 41.0235C21.3288 40.9871 21.3273 40.9661 21.3257 40.9452C21.5206 40.6545 21.7254 40.3681 21.9085 40.0723C22.3686 39.3295 22.8188 38.5824 23.2874 37.8054C23.4344 37.5695 23.5672 37.3652 23.6999 37.1608C23.995 36.6879 24.2914 36.2156 24.5828 35.7412C24.6083 35.6996 24.6011 35.6442 24.6281 35.5676C24.7721 35.3267 24.897 35.1133 25.022 34.8999C25.1315 34.7674 25.2477 34.6384 25.3486 34.5015C25.4427 34.3738 25.5205 34.2378 25.6214 34.0953C26.1935 34.1198 26.7497 34.1545 27.3301 34.2154C27.1994 34.4951 27.0384 34.7462 26.8905 35.0024C26.1744 36.2429 25.4499 37.4802 24.7522 38.7278C24.3066 39.5245 23.8422 40.3196 23.4935 41.1466C22.9465 42.444 22.9511 43.773 23.4333 45.0917C23.5027 45.2816 23.6403 45.4544 23.7607 45.6594C23.7607 45.0016 23.6889 44.387 23.7802 43.7895C23.8782 43.1479 24.065 42.5028 24.3333 41.8958C24.5667 41.3678 24.9642 40.8893 25.2952 40.3917C25.9467 39.412 26.6104 38.4379 27.254 37.4547C27.8927 36.479 28.5129 35.495 29.1412 34.5146Z" fill="#8FE0E4"/>
<path d="M38.7059 10.7464C38.6416 10.7422 38.5772 10.738 38.4649 10.7355C38.3512 10.7396 38.2855 10.7419 38.2051 10.7395C38.1803 10.7375 38.1703 10.7404 38.1456 10.7361C38.112 10.7187 38.0931 10.7083 38.0742 10.6978C38.0789 10.0106 38.0874 9.32334 38.0875 8.63609C38.0877 7.25228 38.0834 5.86847 38.0913 4.44694C38.2409 4.39458 38.3801 4.37995 38.5192 4.36532C38.5673 4.37007 38.6154 4.37483 38.7142 4.37849C39.2669 4.37824 39.7688 4.38213 40.2707 4.3792C40.9019 4.37552 41.533 4.36627 42.1641 4.35942C42.212 4.36636 42.26 4.37331 42.3582 4.37926C42.6546 4.36852 42.9009 4.35877 43.1627 4.34582C43.1801 4.32618 43.1819 4.30973 43.1884 4.27307C43.1899 4.19816 43.1866 4.14347 43.191 4.07089C43.1935 4.01585 43.1884 3.97868 43.1878 3.91802C43.1855 3.50717 43.1787 3.11983 43.1719 2.73248C43.1812 2.66182 43.1904 2.59116 43.1961 2.4763C43.1891 1.72416 43.1856 1.01624 43.1896 0.292438C43.1926 0.254482 43.1881 0.232402 43.1919 0.194565C43.2192 0.162517 43.2383 0.146225 43.2841 0.136546C43.4584 0.137015 43.6059 0.130873 43.781 0.12985C44.4355 0.131486 45.0626 0.128002 45.6897 0.124518C45.7569 0.127448 45.8241 0.130377 45.9423 0.133715C47.1272 0.130823 48.2612 0.127522 49.3951 0.124222C49.8447 0.130181 50.2943 0.136141 50.7877 0.152378C50.8446 0.212367 50.8578 0.262078 50.8606 0.331176C50.8567 0.420263 50.8631 0.489965 50.8642 0.583063C50.8637 1.27986 50.8684 1.95326 50.8732 2.62665C50.8662 2.71393 50.8592 2.80121 50.8562 2.93255C50.8661 3.28049 50.8719 3.58437 50.8693 3.90767C50.8637 3.98174 50.8664 4.03639 50.8626 4.10338C50.8606 4.12389 50.8651 4.13206 50.8646 4.15898C50.8628 4.21568 50.866 4.25365 50.8649 4.30742C50.9005 4.33771 50.9405 4.35219 51.0045 4.37177C51.093 4.3705 51.1575 4.36414 51.2486 4.36621C51.8247 4.3722 52.3741 4.36973 52.9236 4.36727C53.009 4.37002 53.0943 4.37277 53.2316 4.37632C53.968 4.37806 54.6525 4.37944 55.3369 4.37983C55.9788 4.3802 55.977 4.37975 55.9799 4.92482C55.9813 5.16644 55.9917 5.40804 55.998 5.64965C55.9914 5.68946 55.9847 5.72928 55.9796 5.81088C55.9803 6.10255 55.9771 6.35244 55.9791 6.6023C55.9848 7.29289 55.9927 7.98347 55.9997 8.67405C55.9943 8.69835 55.9888 8.72266 55.9838 8.78681C55.9855 9.38214 55.9868 9.93764 55.9803 10.5053C55.9782 10.5255 55.9839 10.5334 55.9851 10.5628C55.9889 10.7545 55.8441 10.7361 55.7115 10.7366C54.8826 10.7397 54.0538 10.7436 53.2249 10.7472C53.1793 10.7434 53.1337 10.7395 53.0375 10.7367C52.2967 10.7425 51.6064 10.7471 50.8973 10.7542C50.8766 10.7852 50.8747 10.8138 50.8663 10.8655C50.8631 11.1433 50.8664 11.3979 50.8696 11.6526C50.8651 11.7061 50.8606 11.7596 50.8579 11.856C50.8655 12.8403 50.8713 13.7817 50.877 14.723C50.8682 14.7787 50.8593 14.8343 50.8501 14.9186C50.8498 14.9472 50.8508 14.9687 50.8281 14.9688C50.7606 14.9757 50.7159 14.9825 50.6711 14.9892C50.2283 14.983 49.7855 14.9717 49.3426 14.9716C47.3346 14.9708 45.3265 14.9731 43.2735 14.9699C43.212 14.9204 43.1954 14.8753 43.1789 14.8301C43.1855 14.7757 43.192 14.7212 43.1958 14.6233C43.1901 13.7039 43.1872 12.8278 43.1844 11.9518C43.1883 11.8661 43.1921 11.7804 43.1943 11.6502C43.1896 11.3516 43.1867 11.0977 43.1906 10.8268C43.159 10.7878 43.1205 10.7659 43.0542 10.7403C42.801 10.7393 42.5757 10.7421 42.3503 10.7448C42.3047 10.7425 42.2591 10.7403 42.1632 10.7382C40.9772 10.7411 39.8416 10.7437 38.7059 10.7464Z" fill="#1A5079"/>
<path d="M0.0114325 2.77559C0.0109472 2.74017 0.010462 2.70475 0.0237659 2.63712C0.0298812 2.14473 0.0050539 1.6842 0.0189984 1.22447C0.0353782 0.684444 0.453367 0.261136 1.09252 0.159088C1.43538 0.104346 1.79514 0.12244 2.14727 0.107667C2.18942 0.107766 2.23158 0.107865 2.32372 0.108528C3.51229 0.108686 4.65087 0.108279 5.78944 0.107872C5.83648 0.111269 5.88351 0.114666 5.97353 0.113661C7.1554 0.108817 8.2943 0.108376 9.43319 0.107935C9.48357 0.115671 9.53395 0.123407 9.62425 0.120814C10.8004 0.109905 11.9367 0.109324 13.073 0.108743C13.1074 0.114576 13.1418 0.120409 13.2099 0.117214C13.3331 0.118386 13.4226 0.138022 13.5119 0.137349C14.5799 0.129294 15.6478 0.118223 16.7158 0.107941C16.7424 0.107988 16.769 0.108034 16.8444 0.108576C18.0489 0.108329 19.2046 0.107587 20.3604 0.106845C20.3921 0.110086 20.4239 0.113328 20.4971 0.112799C21.6945 0.108459 22.8503 0.107889 24.0061 0.107319C24.0397 0.114424 24.0733 0.12153 24.1454 0.119158C25.339 0.108607 26.4942 0.107534 27.6494 0.106461C27.6808 0.109866 27.7122 0.113272 27.7835 0.112856C28.0035 0.125415 28.1832 0.154148 28.3634 0.155814C28.8671 0.160471 29.4788 0.605559 29.4838 1.04777C29.4887 1.48092 29.5125 1.91402 29.5353 2.34688C29.5404 2.44359 29.5757 2.53921 29.5972 2.63534C29.5967 2.6698 29.5963 2.70425 29.5799 2.7728C29.5541 2.83906 29.5358 2.8712 29.5357 2.90337C29.5338 3.7671 29.5325 4.63083 29.5359 5.49455C29.5361 5.54865 29.5753 5.60265 29.5963 5.6567C29.5903 5.69692 29.5844 5.73714 29.5716 5.8037C29.5346 6.45645 29.4934 7.08271 29.4802 7.70937C29.4756 7.92568 29.4146 8.10656 29.2256 8.24968C29.0301 8.39771 28.8231 8.53528 28.6211 8.67742C27.7846 8.6802 26.9482 8.68297 26.0811 8.6892C26.0504 8.69265 26.0489 8.68969 26.0413 8.67332C25.9247 8.6327 25.8158 8.60845 25.6807 8.58219C25.548 8.58329 25.4417 8.58641 25.3074 8.5877C25.2694 8.58543 25.2593 8.58458 25.2492 8.58458C18.0936 8.58309 10.938 8.58118 3.78234 8.58426C3.66162 8.58432 3.54094 8.64497 3.42025 8.67734C2.60679 8.67759 1.79333 8.67783 0.941586 8.66272C0.162549 8.33005 -0.042865 7.80276 0.00704402 7.14984C0.0413638 6.70086 0.0120053 6.24853 0.0111085 5.7977C0.01121 5.76267 0.0113115 5.72764 0.012218 5.65098C0.0124924 4.66476 0.0119627 3.72017 0.0114325 2.77559ZM4.16992 2.35134C4.16946 4.00541 4.16817 5.65947 4.16924 7.31354C4.16946 7.65268 4.35087 7.84274 4.65882 7.839C4.97252 7.83519 5.15232 7.65387 5.15267 7.31492C5.15475 5.35861 5.15385 3.40229 5.15026 1.44598C5.14972 1.15226 4.95378 0.971201 4.66142 0.971159C4.36516 0.971116 4.17414 1.14956 4.16865 1.44456C4.16333 1.72995 4.16907 2.01548 4.16992 2.35134ZM25.3798 3.96435C25.3798 3.20906 25.38 2.45376 25.3796 1.69846C25.3796 1.58939 25.3849 1.47975 25.3737 1.37137C25.3491 1.13446 25.1462 0.972292 24.8855 0.971723C24.6205 0.971145 24.4276 1.13104 24.4046 1.37314C24.399 1.43157 24.4014 1.49057 24.4014 1.54931C24.4009 3.44594 24.4002 5.34258 24.4007 7.23921C24.4007 7.33129 24.3985 7.42526 24.4185 7.51508C24.4629 7.71389 24.6202 7.82053 24.8592 7.83575C25.0885 7.85035 25.256 7.75877 25.3314 7.58395C25.3742 7.48472 25.3778 7.37021 25.3781 7.26253C25.3812 6.17995 25.3799 5.09735 25.3798 3.96435ZM11.754 4.56922C11.7539 5.40846 11.7537 6.2477 11.7541 7.08694C11.7542 7.20441 11.7492 7.3225 11.7615 7.4392C11.7874 7.68344 11.978 7.83615 12.2471 7.83926C12.5072 7.84227 12.7023 7.683 12.7338 7.43896C12.7403 7.38912 12.7375 7.33837 12.7375 7.28805C12.7372 5.38298 12.737 3.47791 12.7352 1.57285C12.7351 1.47276 12.7364 1.36935 12.7082 1.27329C12.651 1.07792 12.4826 0.974628 12.2449 0.97369C12.0055 0.972745 11.839 1.07975 11.7822 1.27355C11.7517 1.37754 11.7552 1.48975 11.755 1.59826C11.7532 2.57178 11.754 3.5453 11.754 4.56922ZM27.9025 3.00662C27.9025 2.79675 27.9028 2.58688 27.9024 2.37702C27.9018 2.04123 27.9111 1.70512 27.8962 1.36976C27.8856 1.13038 27.6748 0.971035 27.4108 0.971366C27.148 0.971695 26.9527 1.13488 26.9319 1.37468C26.9262 1.44153 26.929 1.50894 26.929 1.5761C26.9288 3.45654 26.9286 5.33699 26.929 7.21744C26.929 7.3097 26.9255 7.40296 26.9397 7.49401C26.972 7.70009 27.1734 7.84822 27.4175 7.83969C27.6686 7.83091 27.8362 7.72365 27.8861 7.5135C27.9034 7.44037 27.9003 7.3633 27.9004 7.28803C27.9016 5.8777 27.902 4.46736 27.9025 3.00662ZM17.1584 0.991519C16.8471 1.0804 16.817 1.2887 16.8174 1.52069C16.8207 3.35978 16.8194 5.19886 16.82 7.03795C16.82 7.18892 16.808 7.34138 16.8289 7.49052C16.8604 7.71596 17.0392 7.83367 17.3039 7.83653C17.5585 7.83928 17.7199 7.71821 17.7721 7.51213C17.7947 7.42295 17.7942 7.32872 17.7943 7.23677C17.7952 6.4306 17.7933 5.62443 17.7932 4.81827C17.7931 3.70978 17.7964 2.6013 17.793 1.49282C17.7918 1.11496 17.6288 0.979683 17.1584 0.991519ZM1.64662 6.68624C1.64869 6.94644 1.63945 7.20715 1.65626 7.46669C1.67081 7.69128 1.8408 7.81678 2.10433 7.83914C2.35558 7.86047 2.57402 7.70626 2.61232 7.49032C2.62693 7.40795 2.62197 7.32291 2.62199 7.23909C2.62241 5.35874 2.62144 3.47838 2.62289 1.59802C2.62321 1.17045 2.47162 0.971427 2.13329 0.971299C1.79693 0.971171 1.64837 1.15832 1.64789 1.59918C1.64607 3.27807 1.64682 4.95696 1.64662 6.68624ZM10.2075 5.62776C10.2072 4.27643 10.2075 2.92509 10.2056 1.57376C10.2055 1.47368 10.2318 1.34944 10.1725 1.27895C10.0722 1.15979 9.92308 1.00867 9.77615 0.993518C9.62553 0.977983 9.42137 1.08387 9.30112 1.18575C9.22289 1.25202 9.23683 1.40614 9.23662 1.52093C9.23313 3.45141 9.23385 5.38188 9.23402 7.31236C9.23402 7.37105 9.23242 7.43034 9.24129 7.48832C9.27335 7.69803 9.46148 7.83387 9.71562 7.83495C10.0186 7.83624 10.2034 7.66696 10.2063 7.36523C10.2117 6.80291 10.2076 6.24053 10.2075 5.62776ZM14.2853 7.08679C14.2856 7.14554 14.2863 7.20429 14.2863 7.26304C14.2862 7.64752 14.4464 7.83684 14.7723 7.83693C15.0991 7.83702 15.2585 7.65091 15.2587 7.26396C15.2597 5.35029 15.26 3.43662 15.2598 1.52295C15.2598 1.44757 15.2616 1.37068 15.2454 1.2971C15.2011 1.09583 15.0374 0.989139 14.8034 0.976503C14.5685 0.963817 14.3864 1.05363 14.3193 1.24959C14.2869 1.34407 14.2866 1.44816 14.2865 1.54791C14.2848 3.37765 14.2853 5.2074 14.2853 7.08679ZM20.3153 4.67004C20.3153 3.92323 20.3159 3.17642 20.315 2.42962C20.3146 2.06885 20.3212 1.70779 20.3056 1.34743C20.296 1.12599 20.0858 0.967169 19.8316 0.9722C19.5614 0.977545 19.4039 1.10439 19.3546 1.32133C19.3398 1.38656 19.342 1.45496 19.342 1.52191C19.3415 3.44347 19.3415 5.36502 19.3431 7.28658C19.3431 7.36983 19.3472 7.45542 19.3701 7.53587C19.4342 7.76092 19.6824 7.88588 19.9477 7.82424C20.2247 7.75988 20.3171 7.58947 20.3163 7.36364C20.3134 6.48258 20.3152 5.60151 20.3153 4.67004ZM21.8735 7.32803C21.8911 7.67028 22.0626 7.84302 22.3782 7.83616C22.679 7.82962 22.8451 7.65034 22.8452 7.32208C22.846 5.38351 22.8462 3.44494 22.8442 1.50638C22.8439 1.1604 22.6747 0.975808 22.3692 0.970606C22.049 0.965155 21.8771 1.15373 21.8726 1.51542C21.8723 1.54059 21.8729 1.56577 21.8729 1.59094C21.873 3.48756 21.8732 5.38417 21.8735 7.32803ZM6.70006 5.27492C6.70006 5.58536 6.6999 5.89581 6.70009 6.20625C6.70035 6.60899 6.69534 7.01181 6.70353 7.41444C6.7079 7.6295 6.82877 7.78804 7.09964 7.82881C7.33581 7.86436 7.52741 7.78438 7.62423 7.60616C7.67518 7.51238 7.67285 7.39392 7.673 7.28658C7.67553 5.37357 7.67483 3.46055 7.67438 1.54753C7.67436 1.47206 7.67883 1.39551 7.66588 1.32131C7.62885 1.10925 7.46735 0.991775 7.21898 0.975715C6.98007 0.960268 6.80694 1.0615 6.73617 1.25138C6.70133 1.34486 6.70203 1.44974 6.70185 1.54949C6.69962 2.77449 6.7002 3.9995 6.70006 5.27492Z" fill="#D1F3F7"/>
<path d="M37.802 40.2885C37.802 40.2885 37.8262 40.2828 37.8596 40.2792C38.1979 40.0318 38.5034 39.7886 38.8061 39.5431C38.8232 39.5292 38.8175 39.4958 38.8224 39.4715C38.8224 39.4715 38.8277 39.4745 38.8483 39.4735C38.9681 39.3949 39.0674 39.3173 39.1667 39.2398C39.2524 39.1828 39.338 39.1258 39.4612 39.0618C39.5143 39.0382 39.5299 39.0215 39.5456 39.0048C39.6148 38.9597 39.6841 38.9145 39.7943 38.8687C39.8965 38.8276 39.9577 38.7871 40.0189 38.7466C40.0189 38.7466 40.0351 38.7655 40.0482 38.7605C40.0946 38.7255 40.1279 38.6955 40.1611 38.6655C40.1611 38.6655 40.1707 38.6531 40.204 38.6571C40.3126 38.6122 40.3879 38.5633 40.4632 38.5143C40.5023 38.495 40.5413 38.4756 40.6175 38.4578C40.6929 38.4346 40.731 38.4097 40.7691 38.3849C40.8395 38.3459 40.9099 38.3069 41.0218 38.2624C41.4313 38.1243 41.7993 37.9918 42.1866 37.8573C42.2347 37.8231 42.2634 37.7909 42.3163 37.7595C42.4282 37.7452 42.517 37.7334 42.6035 37.7143C43.241 37.5732 43.8746 37.4188 44.5164 37.2929C44.9424 37.2093 45.3799 37.1659 45.8123 37.1045C45.8405 37.1046 45.8687 37.1047 45.9461 37.1056C46.6907 37.1229 47.3871 37.1251 48.081 37.1608C48.5415 37.1844 48.9983 37.2559 49.4568 37.306C49.4836 37.3069 49.5104 37.3078 49.5642 37.3263C49.6608 37.3715 49.7285 37.4035 49.8005 37.426C50.3466 37.5963 50.9245 37.7175 51.4316 37.9467C51.9637 38.1871 52.4282 38.5306 52.9223 38.8291C53.0078 38.9088 53.0934 38.9886 53.2039 39.0885C53.3364 39.2578 53.4338 39.4129 53.5532 39.5551C54.0825 40.1852 54.1924 40.9248 54.3371 41.6501C54.2749 41.6988 54.2151 41.7431 54.1981 41.7967C54.0857 42.1516 54.0285 42.5236 53.868 42.8622C53.2715 44.1203 52.1796 45.0432 50.8628 45.7967C49.8775 46.3605 48.8078 46.7843 47.6625 47.0793C46.5698 47.3609 45.4604 47.5684 44.3137 47.587C43.6889 47.5972 43.0595 47.5871 42.4388 47.5334C41.8515 47.4826 41.2715 47.3683 40.6912 47.2702C40.5065 47.2389 40.4964 47.1184 40.5677 46.9928C40.6402 46.8654 40.7114 46.737 40.7942 46.6141C41.4478 45.6444 42.0698 44.6585 42.7691 43.712C43.4683 42.7657 44.2027 41.8328 45.0006 40.9427C45.8474 39.998 46.7838 39.1083 47.6882 38.1995C47.9477 37.9387 48.232 37.6949 48.5049 37.4433C48.2516 37.4941 48.0289 37.582 47.8235 37.6921C46.7076 38.2903 45.7124 39.0024 44.811 39.8158C43.7111 40.8083 42.7939 41.9031 42.037 43.0891C41.363 44.1453 40.8348 45.2533 40.5017 46.4206C40.4483 46.6077 40.3795 46.7917 40.3204 46.9777C40.2742 47.1233 40.1861 47.1791 40.0144 47.0895C39.9639 47.0632 39.9055 47.0469 39.8497 47.0281C38.6736 46.6302 37.675 46.0471 36.9835 45.142C36.8737 44.9982 36.7585 44.8573 36.6436 44.6942C36.5971 44.392 36.5586 44.1099 36.5073 43.8294C36.3105 42.7542 36.6503 41.7907 37.3719 40.9015C37.5307 40.7058 37.6594 40.4933 37.802 40.2885Z" fill="#FFD1D3"/>
<path d="M36.6455 44.715C36.7582 44.8573 36.8735 44.9982 36.9833 45.142C37.6748 46.0471 38.6734 46.6302 39.8495 47.0281C39.9052 47.0469 39.9637 47.0632 40.0142 47.0895C40.1859 47.1791 40.274 47.1233 40.3202 46.9777C40.3792 46.7917 40.4481 46.6077 40.5015 46.4206C40.8346 45.2533 41.3627 44.1453 42.0367 43.0891C42.7936 41.9031 43.7109 40.8083 44.8107 39.8158C45.7122 39.0024 46.7073 38.2903 47.8233 37.6921C48.0287 37.582 48.2513 37.4941 48.5047 37.4433C48.2317 37.6949 47.9474 37.9387 47.6879 38.1995C46.7835 39.1083 45.8472 39.998 45.0004 40.9427C44.2025 41.8328 43.4681 42.7657 42.7689 43.712C42.0695 44.6585 41.4475 45.6444 40.7939 46.6141C40.7111 46.737 40.6399 46.8654 40.5675 46.9928C40.4961 47.1184 40.5063 47.2389 40.6909 47.2702C41.2712 47.3683 41.8512 47.4826 42.4385 47.5334C43.0592 47.5871 43.6887 47.5972 44.3134 47.587C45.4602 47.5684 46.5696 47.3609 47.6623 47.0793C48.8076 46.7843 49.8773 46.3605 50.8626 45.7967C52.1793 45.0432 53.2712 44.1203 53.8677 42.8622C54.0283 42.5236 54.0854 42.1516 54.1979 41.7967C54.2149 41.7431 54.2746 41.6988 54.3409 41.6693C54.3724 41.7406 54.3776 41.7927 54.3828 41.8448C54.3949 41.8839 54.4069 41.923 54.428 41.9974C54.4426 42.1183 54.4482 42.2038 54.45 42.3071C54.4657 42.3665 54.4853 42.4081 54.506 42.4673C54.511 42.5198 54.5149 42.5548 54.5156 42.6054C54.5418 42.6509 54.5711 42.6807 54.6038 42.732C54.65 42.9718 54.6928 43.19 54.7247 43.4173C54.7371 43.4566 54.7604 43.4867 54.7871 43.536C54.7931 43.607 54.7958 43.6587 54.7852 43.7225C54.7972 43.796 54.8225 43.8574 54.8502 43.9415C54.8383 44.1986 54.824 44.433 54.7945 44.6776C54.7738 44.7185 54.7683 44.7493 54.7624 44.7929C54.7621 44.8227 54.7623 44.8397 54.7573 44.8771C54.7537 44.9248 54.7554 44.9523 54.7526 44.9988C54.6047 45.5644 54.3421 46.0706 53.9735 46.5364C53.7317 46.842 53.466 47.1346 53.2109 47.433C53.1767 47.459 53.1425 47.4851 53.0851 47.5281C52.9191 47.6608 52.7763 47.7765 52.6335 47.8921C52.6086 47.9141 52.5837 47.9361 52.5341 47.977C51.7839 48.4003 51.0619 48.809 50.3309 49.2064C50.0899 49.3375 49.8257 49.4393 49.5722 49.5544C49.5454 49.5569 49.5186 49.5594 49.4506 49.5645C49.2134 49.6308 49.0228 49.7114 48.8205 49.7554C47.8611 49.9641 46.8985 50.1628 45.937 50.365C45.9086 50.3653 45.8801 50.3656 45.805 50.3656C45.5486 50.3814 45.3383 50.4158 45.1294 50.4104C44.1836 50.3857 43.2381 50.3498 42.2925 50.3179C42.2612 50.3047 42.2298 50.2914 42.158 50.2706C41.6793 50.1631 41.2317 50.0851 40.8051 49.9584C40.0729 49.741 39.3713 49.4662 38.763 49.052C38.7012 49.0175 38.6394 48.9831 38.5517 48.9309C38.2788 48.675 38.0319 48.4369 37.7846 48.1833C37.7495 48.143 37.7147 48.1183 37.6747 48.0786C37.6317 48.0391 37.5939 48.0147 37.5562 47.9903C37.5543 47.9688 37.5525 47.9474 37.5478 47.893C37.4906 47.802 37.4363 47.7441 37.3787 47.6673C37.1499 46.8891 36.9243 46.1298 36.709 45.3536C36.6946 45.1294 36.6701 44.9222 36.6455 44.715Z" fill="#FEAAB7"/>
<path d="M8.10442 17.6746C6.69092 18.0486 5.60253 19.0934 5.51145 20.3572C5.49395 20.6001 5.49843 20.8443 5.4984 21.0878C5.49776 26.6236 5.49998 32.1593 5.49503 37.6951C5.49447 38.324 5.54358 38.9375 5.94092 39.4959C6.37229 40.1021 6.93461 40.585 7.77668 40.8402C7.80222 40.8493 7.82808 40.8563 7.82808 40.8563L7.84976 40.8424C7.84976 40.8424 7.85695 40.8277 7.85065 40.8217C7.90837 40.8315 7.97237 40.8474 8.06896 40.8764C8.13442 40.9061 8.16728 40.9225 8.19439 40.9484C8.22024 40.9837 8.25185 41.0096 8.28346 41.0355C8.23984 41.109 8.15852 41.1823 8.15815 41.2559C8.15074 42.7427 8.13924 44.2296 8.15796 45.7162C8.16825 46.5331 8.35329 47.3263 8.83424 48.0532C9.19088 48.5923 9.66879 49.0511 10.2236 49.4565C10.2586 49.4821 10.2848 49.5161 10.3593 49.5902C10.191 49.5977 10.0771 49.6072 9.96317 49.6073C8.39412 49.6083 6.82507 49.6109 5.25604 49.6068C4.35575 49.6045 3.56056 49.3343 2.84495 48.9013C2.18978 48.505 1.6683 48.0055 1.36676 47.3755C1.22308 47.0754 1.12342 46.7553 1.05718 46.4366C0.995898 46.1417 0.987131 45.8366 0.987041 45.536C0.983825 34.7338 0.983389 23.9316 0.986444 13.1293C0.986653 12.391 1.3675 11.776 2.04272 11.3214C2.48374 11.0245 3.05371 10.9053 3.62574 10.9C5.02252 10.887 6.41959 10.8948 7.81655 10.8963C8.1928 10.8967 8.2593 10.9709 8.191 11.2795C8.16927 11.3777 8.15424 11.4785 8.15412 11.5781C8.15187 13.3925 8.15365 15.2069 8.15055 17.0212C8.15019 17.2335 8.12616 17.4458 8.10442 17.6746Z" fill="#FE9214"/>
<path d="M8.92323 21.783C8.92266 21.2118 8.92956 20.6657 8.91716 20.1199C8.91317 19.944 8.97796 19.8842 9.19229 19.8879C9.77917 19.8981 10.3666 19.8858 10.9536 19.8941C11.627 19.9036 12.1599 20.2234 12.3669 20.7258C12.5709 21.2209 12.3865 21.7205 11.8845 22.0872C11.8188 22.1353 11.7604 22.2683 11.7937 22.3188C12.0021 22.6352 12.2369 22.9397 12.4648 23.2472C12.5012 23.2963 12.547 23.3406 12.622 23.4248C12.8313 23.1455 13.0614 22.901 13.2096 22.6261C13.4282 22.2204 13.7679 22.071 14.282 22.1469C14.398 22.164 14.5209 22.1494 14.7029 22.1494C14.6214 22.2686 14.5673 22.3532 14.5072 22.4347C14.1168 22.9648 13.734 23.4991 13.3282 24.021C13.2076 24.1761 13.2277 24.287 13.3356 24.4298C13.7332 24.9563 14.1207 25.488 14.5109 26.0183C14.5627 26.0887 14.6077 26.1625 14.6903 26.2864C14.2984 26.2864 13.9534 26.2946 13.61 26.2787C13.5497 26.2759 13.4878 26.1765 13.4408 26.1143C13.1728 25.76 12.9091 25.4035 12.6132 25.0065C12.3278 25.3885 12.056 25.729 11.8158 26.0842C11.6991 26.2567 11.5595 26.3181 11.3293 26.3037C11.0813 26.2882 10.8307 26.3002 10.5119 26.3002C10.7202 26.0126 10.8921 25.7715 11.0683 25.5325C11.3482 25.153 11.6268 24.7728 11.9149 24.3977C12.0074 24.2772 12.017 24.1817 11.9201 24.0549C11.5679 23.5943 11.2415 23.1199 10.8806 22.6643C10.7831 22.5411 10.6151 22.4185 10.4499 22.3774C9.99195 22.2633 9.90406 22.3337 9.90413 22.726C9.90424 23.3644 9.90404 24.0028 9.90397 24.6412C9.90396 24.7321 9.90397 24.8229 9.90397 24.9355C9.56952 24.9355 9.26421 24.9355 8.92321 24.9355C8.92321 23.8878 8.92321 22.848 8.92323 21.783ZM10.608 21.5417C10.7188 21.5412 10.8298 21.5446 10.9402 21.5396C11.2516 21.5253 11.4712 21.3511 11.4737 21.1205C11.4762 20.892 11.2571 20.7167 10.9388 20.7056C10.7077 20.6976 10.4741 20.7184 10.2447 20.6996C9.95677 20.676 9.88801 20.772 9.8963 20.9984C9.91622 21.5423 9.90337 21.5427 10.608 21.5417Z" fill="#20567C"/>
<path d="M25.8776 8.69634C25.9114 8.75163 25.9453 8.80692 25.9948 8.87037C26.0099 9.21587 26.0092 9.55321 25.9927 9.92456C25.9687 10.0023 25.9604 10.0459 25.9522 10.0896C18.5338 10.0902 11.1154 10.0908 3.66965 10.0731C3.64197 10.0031 3.64166 9.95125 3.64592 9.87858C3.62418 9.78623 3.59787 9.71474 3.57156 9.64326C3.56103 9.38862 3.55049 9.13399 3.54199 8.85627C3.60139 8.79571 3.65874 8.75824 3.72412 8.70669C3.75371 8.69229 3.77529 8.69197 3.8352 8.70098C4.00443 8.71545 4.13532 8.72508 4.26622 8.72509C11.308 8.72586 18.3498 8.72598 25.3916 8.72434C25.5001 8.72431 25.6085 8.70138 25.737 8.69029C25.7972 8.69308 25.8374 8.69471 25.8776 8.69634Z" fill="#FE9313"/>
<path d="M27.5985 12.52C27.3977 12.1428 27.0907 11.8645 26.6581 11.7178C26.4151 11.6353 26.1325 11.6163 25.8654 11.6036C25.2616 11.5748 24.6556 11.5767 24.0518 11.5475C23.8009 11.5354 23.6576 11.3968 23.6443 11.1808C23.6302 10.9499 23.8077 10.8207 24.0398 10.8043C25.1231 10.728 26.2197 10.6046 27.2444 11.0446C28.1159 11.4188 28.6429 12.0196 28.6745 12.8345C28.719 13.9831 28.6883 15.1338 28.6853 16.2835C28.6844 16.6128 28.5566 16.7365 28.2406 16.7405C27.8997 16.7448 27.7166 16.5892 27.7155 16.2788C27.7122 15.2717 27.7199 14.2645 27.7082 13.2575C27.7054 13.0175 27.6431 12.778 27.5985 12.52Z" fill="#FEC268"/>
<path d="M29.1405 34.4983C28.5119 35.495 27.8918 36.479 27.2531 37.4547C26.6095 38.4379 25.9457 39.412 25.2942 40.3916C24.9632 40.8893 24.5657 41.3678 24.3323 41.8958C24.064 42.5028 23.8772 43.1479 23.7792 43.7895C23.6879 44.387 23.7597 45.0016 23.7597 45.6594C23.6394 45.4544 23.5017 45.2816 23.4323 45.0917C22.9501 43.773 22.9455 42.444 23.4926 41.1466C23.8413 40.3196 24.3057 39.5245 24.7512 38.7277C25.449 37.4802 26.1734 36.2429 26.8895 35.0024C27.0375 34.7462 27.1984 34.495 27.3547 34.2243C27.8201 33.4819 28.2751 32.7527 28.75 32.0324C29.7552 30.508 30.7555 28.9812 31.7869 27.469C32.6196 26.248 33.7521 25.2752 35.3447 24.7265C36.2358 24.4194 37.3388 24.3568 38.1123 24.575C37.8115 24.5985 37.5711 24.6049 37.336 24.6375C35.5692 24.8819 34.3148 25.7494 33.4366 26.9816C32.8936 27.7435 32.5097 28.5832 32.049 29.3858C31.1094 31.0229 30.166 32.6585 29.2254 34.2951C29.191 34.355 29.1688 34.4196 29.1405 34.4983Z" fill="#EEF0EB"/>
<path d="M4.16954 2.32614C4.16867 2.01548 4.16293 1.72995 4.16825 1.44457C4.17374 1.14956 4.36476 0.971118 4.66102 0.971161C4.95338 0.971203 5.14932 1.15226 5.14986 1.44598C5.15345 3.40229 5.15435 5.35861 5.15228 7.31492C5.15192 7.65388 4.97212 7.83519 4.65843 7.839C4.35047 7.84274 4.16906 7.65269 4.16884 7.31354C4.16777 5.65947 4.16907 4.00541 4.16954 2.32614Z" fill="#23577D"/>
<path d="M25.3797 3.98956C25.3797 5.09736 25.381 6.17995 25.3779 7.26254C25.3776 7.37021 25.374 7.48472 25.3312 7.58396C25.2558 7.75878 25.0884 7.85035 24.859 7.83575C24.62 7.82053 24.4627 7.7139 24.4184 7.51509C24.3983 7.42527 24.4006 7.3313 24.4006 7.23921C24.4001 5.34258 24.4007 3.44595 24.4013 1.54932C24.4013 1.49058 24.3989 1.43157 24.4044 1.37314C24.4274 1.13105 24.6203 0.971149 24.8853 0.971727C25.1461 0.972295 25.3489 1.13446 25.3735 1.37137C25.3847 1.47975 25.3794 1.5894 25.3795 1.69847C25.3798 2.45376 25.3797 3.20906 25.3797 3.98956Z" fill="#20567B"/>
<path d="M11.7537 4.54401C11.7537 3.54529 11.7529 2.57177 11.7547 1.59826C11.7549 1.48974 11.7515 1.37753 11.782 1.27354C11.8388 1.07974 12.0052 0.97274 12.2447 0.973685C12.4824 0.974622 12.6508 1.07792 12.708 1.27329C12.7361 1.36935 12.7348 1.47275 12.7349 1.57284C12.7368 3.47791 12.7369 5.38298 12.7372 7.28804C12.7373 7.33837 12.74 7.38911 12.7336 7.43895C12.702 7.683 12.5069 7.84227 12.2468 7.83926C11.9777 7.83615 11.7871 7.68343 11.7613 7.4392C11.7489 7.32249 11.754 7.2044 11.7539 7.08694C11.7534 6.2477 11.7537 5.40846 11.7537 4.54401Z" fill="#22577D"/>
<path d="M27.9029 3.03182C27.9024 4.46736 27.9021 5.87769 27.9008 7.28802C27.9007 7.3633 27.9038 7.44036 27.8865 7.5135C27.8366 7.72365 27.669 7.83091 27.4179 7.83969C27.1739 7.84822 26.9724 7.70008 26.9402 7.49401C26.9259 7.40295 26.9294 7.30969 26.9294 7.21743C26.929 5.33698 26.9292 3.45654 26.9294 1.57609C26.9294 1.50893 26.9266 1.44153 26.9324 1.37467C26.9531 1.13488 27.1484 0.971689 27.4112 0.97136C27.6753 0.971029 27.886 1.13037 27.8967 1.36976C27.9115 1.70512 27.9022 2.04122 27.9029 2.37701C27.9033 2.58688 27.9029 2.79675 27.9029 3.03182Z" fill="#21567E"/>
<path d="M17.1813 0.986021C17.6287 0.979682 17.7917 1.11496 17.7928 1.49282C17.7962 2.6013 17.793 3.70978 17.7931 4.81827C17.7931 5.62443 17.795 6.4306 17.7941 7.23677C17.794 7.32872 17.7945 7.42294 17.7719 7.51213C17.7197 7.7182 17.5584 7.83928 17.3037 7.83653C17.039 7.83367 16.8603 7.71596 16.8287 7.49052C16.8078 7.34138 16.8199 7.18892 16.8198 7.03795C16.8192 5.19886 16.8205 3.35978 16.8172 1.52069C16.8168 1.2887 16.8469 1.0804 17.1813 0.986021Z" fill="#1F557B"/>
<path d="M1.64621 6.66105C1.64642 4.95696 1.64566 3.27807 1.64749 1.59918C1.64797 1.15832 1.79652 0.971171 2.13289 0.971298C2.47121 0.971426 2.62281 1.17045 2.62248 1.59802C2.62104 3.47838 2.62201 5.35874 2.62159 7.23909C2.62157 7.32291 2.62652 7.40795 2.61191 7.49032C2.57362 7.70626 2.35518 7.86047 2.10392 7.83915C1.8404 7.81678 1.6704 7.69128 1.65586 7.46669C1.63905 7.20715 1.64829 6.94644 1.64621 6.66105Z" fill="#22577D"/>
<path d="M10.207 5.65296C10.2071 6.24052 10.2112 6.80291 10.2058 7.36523C10.2029 7.66696 10.0181 7.83623 9.71517 7.83495C9.46104 7.83387 9.2729 7.69803 9.24084 7.48832C9.23197 7.43033 9.23358 7.37105 9.23357 7.31236C9.23341 5.38188 9.23268 3.4514 9.23617 1.52093C9.23638 1.40613 9.22245 1.25201 9.30067 1.18575C9.42093 1.08386 9.62508 0.977979 9.7757 0.993515C9.92263 1.00867 10.0717 1.15979 10.172 1.27894C10.2314 1.34944 10.205 1.47367 10.2052 1.57376C10.207 2.92509 10.2068 4.27642 10.207 5.65296Z" fill="#20577C"/>
<path d="M14.2852 7.06197C14.2852 5.2074 14.2847 3.37766 14.2865 1.54791C14.2866 1.44816 14.2868 1.34407 14.3192 1.24959C14.3864 1.05363 14.5685 0.963818 14.8034 0.976503C15.0373 0.989139 15.2011 1.09583 15.2454 1.2971C15.2616 1.37068 15.2598 1.44757 15.2598 1.52295C15.26 3.43662 15.2596 5.35029 15.2586 7.26397C15.2584 7.65091 15.0991 7.83702 14.7723 7.83693C14.4464 7.83684 14.2861 7.64752 14.2863 7.26304C14.2863 7.20429 14.2856 7.14554 14.2852 7.06197Z" fill="#1F557C"/>
<path d="M20.3154 4.69525C20.3153 5.60152 20.3135 6.48259 20.3164 7.36364C20.3172 7.58948 20.2248 7.75989 19.9478 7.82424C19.6825 7.88589 19.4343 7.76093 19.3702 7.53587C19.3473 7.45543 19.3432 7.36984 19.3432 7.28659C19.3416 5.36503 19.3416 3.44348 19.3421 1.52192C19.3421 1.45497 19.3399 1.38657 19.3547 1.32134C19.404 1.10439 19.5615 0.977553 19.8316 0.972208C20.0859 0.967177 20.2961 1.126 20.3057 1.34744C20.3213 1.7078 20.3147 2.06886 20.3151 2.42963C20.316 3.17643 20.3154 3.92324 20.3154 4.69525Z" fill="#20567C"/>
<path d="M21.873 7.30439C21.8728 5.38415 21.8726 3.48754 21.8725 1.59093C21.8725 1.56575 21.8718 1.54057 21.8722 1.5154C21.8767 1.15371 22.0486 0.965139 22.3688 0.970589C22.6743 0.975791 22.8434 1.16038 22.8438 1.50636C22.8458 3.44493 22.8456 5.3835 22.8448 7.32206C22.8447 7.65032 22.6786 7.8296 22.3778 7.83614C22.0622 7.843 21.8907 7.67027 21.873 7.30439Z" fill="#1F567C"/>
<path d="M6.69949 5.24972C6.69964 3.99951 6.69905 2.7745 6.70129 1.5495C6.70147 1.44975 6.70076 1.34487 6.7356 1.25139C6.80637 1.06151 6.9795 0.960277 7.21841 0.975724C7.46678 0.991783 7.62829 1.10926 7.66531 1.32132C7.67826 1.39552 7.67379 1.47207 7.67381 1.54754C7.67426 3.46056 7.67497 5.37358 7.67243 7.28659C7.67229 7.39393 7.67462 7.51239 7.62367 7.60617C7.52684 7.78439 7.33525 7.86437 7.09907 7.82882C6.82821 7.78805 6.70734 7.62951 6.70296 7.41445C6.69477 7.01182 6.69978 6.609 6.69953 6.20626C6.69933 5.89582 6.69949 5.58537 6.69949 5.24972Z" fill="#20567C"/>
</svg>
